<svg width="25" height="21" viewBox="0 0 25 21" fill="none" xmlns="http://www.w3.org/2000/svg">
<g id="Ai">
<path d="M0 20.8661L8.42138 0.320312H10.0638L18.3956 20.8661H16.0365L8.77974 2.70936H9.64577L2.32932 20.8661H0ZM3.85233 15.5206V13.5795H14.603V15.5206H3.85233Z" fill="#23116C"/>
<path d="M21.6337 20.8661V6.83046H23.754V20.8661H21.6337ZM22.6789 3.78443C22.2807 3.78443 21.9423 3.64507 21.6635 3.36634C21.3848 3.06771 21.2455 2.71931 21.2455 2.32114C21.2455 1.90305 21.3848 1.55465 21.6635 1.27593C21.9423 0.997209 22.2807 0.857848 22.6789 0.857848C23.1169 0.857848 23.4653 0.997209 23.7241 1.27593C24.0028 1.55465 24.1422 1.90305 24.1422 2.32114C24.1422 2.71931 24.0028 3.06771 23.7241 3.36634C23.4653 3.64507 23.1169 3.78443 22.6789 3.78443Z" fill="#23116C"/>
</g>
</svg>
